<?xml version="1.0" encoding="utf-8"?>
<svg xmlns="http://www.w3.org/2000/svg" xmlns:xlink="http://www.w3.org/1999/xlink" width="600" height="400" viewBox="0 0 2400 1600">
<defs>
  <clipPath id="clip190">
    <rect x="0" y="0" width="2400" height="1600"/>
  </clipPath>
</defs>
<path clip-path="url(#clip190)" d="
M0 1600 L2400 1600 L2400 0 L0 0  Z
  " fill="#ffffff" fill-rule="evenodd" fill-opacity="1"/>
<defs>
  <clipPath id="clip191">
    <rect x="480" y="0" width="1681" height="1600"/>
  </clipPath>
</defs>
<path clip-path="url(#clip190)" d="
M197.852 1423.18 L2352.76 1423.18 L2352.76 123.472 L197.852 123.472  Z
  " fill="#ffffff" fill-rule="evenodd" fill-opacity="1"/>
<defs>
  <clipPath id="clip192">
    <rect x="197" y="123" width="2156" height="1301"/>
  </clipPath>
</defs>
<polyline clip-path="url(#clip192)" style="stroke:#000000; stroke-width:2; stroke-opacity:0.1; fill:none" points="
  238.306,1423.18 238.306,123.472 
  "/>
<polyline clip-path="url(#clip192)" style="stroke:#000000; stroke-width:2; stroke-opacity:0.1; fill:none" points="
  751.671,1423.18 751.671,123.472 
  "/>
<polyline clip-path="url(#clip192)" style="stroke:#000000; stroke-width:2; stroke-opacity:0.1; fill:none" points="
  1265.04,1423.18 1265.04,123.472 
  "/>
<polyline clip-path="url(#clip192)" style="stroke:#000000; stroke-width:2; stroke-opacity:0.1; fill:none" points="
  1778.4,1423.18 1778.4,123.472 
  "/>
<polyline clip-path="url(#clip192)" style="stroke:#000000; stroke-width:2; stroke-opacity:0.1; fill:none" points="
  2291.77,1423.18 2291.77,123.472 
  "/>
<polyline clip-path="url(#clip190)" style="stroke:#000000; stroke-width:4; stroke-opacity:1; fill:none" points="
  197.852,1423.18 2352.76,1423.18 
  "/>
<polyline clip-path="url(#clip190)" style="stroke:#000000; stroke-width:4; stroke-opacity:1; fill:none" points="
  238.306,1423.18 238.306,1407.58 
  "/>
<polyline clip-path="url(#clip190)" style="stroke:#000000; stroke-width:4; stroke-opacity:1; fill:none" points="
  751.671,1423.18 751.671,1407.58 
  "/>
<polyline clip-path="url(#clip190)" style="stroke:#000000; stroke-width:4; stroke-opacity:1; fill:none" points="
  1265.04,1423.18 1265.04,1407.58 
  "/>
<polyline clip-path="url(#clip190)" style="stroke:#000000; stroke-width:4; stroke-opacity:1; fill:none" points="
  1778.4,1423.18 1778.4,1407.58 
  "/>
<polyline clip-path="url(#clip190)" style="stroke:#000000; stroke-width:4; stroke-opacity:1; fill:none" points="
  2291.77,1423.18 2291.77,1407.58 
  "/>
<path clip-path="url(#clip190)" d="M 0 0 M238.306 1452.37 Q234.695 1452.37 232.866 1455.94 Q231.06 1459.48 231.06 1466.61 Q231.06 1473.71 232.866 1477.28 Q234.695 1480.82 238.306 1480.82 Q241.94 1480.82 243.745 1477.28 Q245.574 1473.71 245.574 1466.61 Q245.574 1459.48 243.745 1455.94 Q241.94 1452.37 238.306 1452.37 M238.306 1448.67 Q244.116 1448.67 247.171 1453.27 Q250.25 1457.86 250.25 1466.61 Q250.25 1475.33 247.171 1479.94 Q244.116 1484.52 238.306 1484.52 Q232.496 1484.52 229.417 1479.94 Q226.361 1475.33 226.361 1466.61 Q226.361 1457.86 229.417 1453.27 Q232.496 1448.67 238.306 1448.67 Z" fill="#000000" fill-rule="evenodd" fill-opacity="1" /><path clip-path="url(#clip190)" d="M 0 0 M733.315 1479.92 L749.634 1479.92 L749.634 1483.85 L727.69 1483.85 L727.69 1479.92 Q730.352 1477.16 734.935 1472.53 Q739.542 1467.88 740.722 1466.54 Q742.968 1464.01 743.847 1462.28 Q744.75 1460.52 744.75 1458.83 Q744.75 1456.07 742.806 1454.34 Q740.884 1452.6 737.782 1452.6 Q735.583 1452.6 733.13 1453.37 Q730.699 1454.13 727.921 1455.68 L727.921 1450.96 Q730.745 1449.82 733.199 1449.25 Q735.653 1448.67 737.69 1448.67 Q743.06 1448.67 746.255 1451.35 Q749.449 1454.04 749.449 1458.53 Q749.449 1460.66 748.639 1462.58 Q747.852 1464.48 745.745 1467.07 Q745.167 1467.74 742.065 1470.96 Q738.963 1474.15 733.315 1479.92 Z" fill="#000000" fill-rule="evenodd" fill-opacity="1" /><path clip-path="url(#clip190)" d="M 0 0 M754.75 1449.29 L773.106 1449.29 L773.106 1453.23 L759.032 1453.23 L759.032 1461.7 Q760.051 1461.35 761.069 1461.19 Q762.088 1461 763.106 1461 Q768.893 1461 772.273 1464.18 Q775.653 1467.35 775.653 1472.76 Q775.653 1478.34 772.18 1481.44 Q768.708 1484.52 762.389 1484.52 Q760.213 1484.52 757.944 1484.15 Q755.699 1483.78 753.292 1483.04 L753.292 1478.34 Q755.375 1479.48 757.597 1480.03 Q759.819 1480.59 762.296 1480.59 Q766.301 1480.59 768.639 1478.48 Q770.977 1476.38 770.977 1472.76 Q770.977 1469.15 768.639 1467.05 Q766.301 1464.94 762.296 1464.94 Q760.421 1464.94 758.546 1465.36 Q756.694 1465.77 754.75 1466.65 L754.75 1449.29 Z" fill="#000000" fill-rule="evenodd" fill-opacity="1" /><path clip-path="url(#clip190)" d="M 0 0 M1241.81 1449.29 L1260.16 1449.29 L1260.16 1453.23 L1246.09 1453.23 L1246.09 1461.7 Q1247.11 1461.35 1248.13 1461.19 Q1249.15 1461 1250.16 1461 Q1255.95 1461 1259.33 1464.18 Q1262.71 1467.35 1262.71 1472.76 Q1262.71 1478.34 1259.24 1481.44 Q1255.77 1484.52 1249.45 1484.52 Q1247.27 1484.52 1245 1484.15 Q1242.76 1483.78 1240.35 1483.04 L1240.35 1478.34 Q1242.43 1479.48 1244.66 1480.03 Q1246.88 1480.59 1249.35 1480.59 Q1253.36 1480.59 1255.7 1478.48 Q1258.03 1476.38 1258.03 1472.76 Q1258.03 1469.15 1255.7 1467.05 Q1253.36 1464.94 1249.35 1464.94 Q1247.48 1464.94 1245.6 1465.36 Q1243.75 1465.77 1241.81 1466.65 L1241.81 1449.29 Z" fill="#000000" fill-rule="evenodd" fill-opacity="1" /><path clip-path="url(#clip190)" d="M 0 0 M1277.78 1452.37 Q1274.17 1452.37 1272.34 1455.94 Q1270.53 1459.48 1270.53 1466.61 Q1270.53 1473.71 1272.34 1477.28 Q1274.17 1480.82 1277.78 1480.82 Q1281.41 1480.82 1283.22 1477.28 Q1285.05 1473.71 1285.05 1466.61 Q1285.05 1459.48 1283.22 1455.94 Q1281.41 1452.37 1277.78 1452.37 M1277.78 1448.67 Q1283.59 1448.67 1286.65 1453.27 Q1289.72 1457.86 1289.72 1466.61 Q1289.72 1475.33 1286.65 1479.94 Q1283.59 1484.52 1277.78 1484.52 Q1271.97 1484.52 1268.89 1479.94 Q1265.84 1475.33 1265.84 1466.61 Q1265.84 1457.86 1268.89 1453.27 Q1271.97 1448.67 1277.78 1448.67 Z" fill="#000000" fill-rule="evenodd" fill-opacity="1" /><path clip-path="url(#clip190)" d="M 0 0 M1754.28 1449.29 L1776.5 1449.29 L1776.5 1451.28 L1763.96 1483.85 L1759.07 1483.85 L1770.88 1453.23 L1754.28 1453.23 L1754.28 1449.29 Z" fill="#000000" fill-rule="evenodd" fill-opacity="1" /><path clip-path="url(#clip190)" d="M 0 0 M1781.62 1449.29 L1799.98 1449.29 L1799.98 1453.23 L1785.9 1453.23 L1785.9 1461.7 Q1786.92 1461.35 1787.94 1461.19 Q1788.96 1461 1789.98 1461 Q1795.76 1461 1799.14 1464.18 Q1802.52 1467.35 1802.52 1472.76 Q1802.52 1478.34 1799.05 1481.44 Q1795.58 1484.52 1789.26 1484.52 Q1787.08 1484.52 1784.81 1484.15 Q1782.57 1483.78 1780.16 1483.04 L1780.16 1478.34 Q1782.25 1479.48 1784.47 1480.03 Q1786.69 1480.59 1789.17 1480.59 Q1793.17 1480.59 1795.51 1478.48 Q1797.85 1476.38 1797.85 1472.76 Q1797.85 1469.15 1795.51 1467.05 Q1793.17 1464.94 1789.17 1464.94 Q1787.29 1464.94 1785.42 1465.36 Q1783.56 1465.77 1781.62 1466.65 L1781.62 1449.29 Z" fill="#000000" fill-rule="evenodd" fill-opacity="1" /><path clip-path="url(#clip190)" d="M 0 0 M2255.14 1479.92 L2262.78 1479.92 L2262.78 1453.55 L2254.47 1455.22 L2254.47 1450.96 L2262.73 1449.29 L2267.4 1449.29 L2267.4 1479.92 L2275.04 1479.92 L2275.04 1483.85 L2255.14 1483.85 L2255.14 1479.92 Z" fill="#000000" fill-rule="evenodd" fill-opacity="1" /><path clip-path="url(#clip190)" d="M 0 0 M2290.11 1452.37 Q2286.5 1452.37 2284.67 1455.94 Q2282.87 1459.48 2282.87 1466.61 Q2282.87 1473.71 2284.67 1477.28 Q2286.5 1480.82 2290.11 1480.82 Q2293.75 1480.82 2295.55 1477.28 Q2297.38 1473.71 2297.38 1466.61 Q2297.38 1459.48 2295.55 1455.94 Q2293.75 1452.37 2290.11 1452.37 M2290.11 1448.67 Q2295.92 1448.67 2298.98 1453.27 Q2302.06 1457.86 2302.06 1466.61 Q2302.06 1475.33 2298.98 1479.94 Q2295.92 1484.52 2290.11 1484.52 Q2284.3 1484.52 2281.22 1479.94 Q2278.17 1475.33 2278.17 1466.61 Q2278.17 1457.86 2281.22 1453.27 Q2284.3 1448.67 2290.11 1448.67 Z" fill="#000000" fill-rule="evenodd" fill-opacity="1" /><path clip-path="url(#clip190)" d="M 0 0 M2317.13 1452.37 Q2313.52 1452.37 2311.69 1455.94 Q2309.88 1459.48 2309.88 1466.61 Q2309.88 1473.71 2311.69 1477.28 Q2313.52 1480.82 2317.13 1480.82 Q2320.76 1480.82 2322.57 1477.28 Q2324.4 1473.71 2324.4 1466.61 Q2324.4 1459.48 2322.57 1455.94 Q2320.76 1452.37 2317.13 1452.37 M2317.13 1448.67 Q2322.94 1448.67 2325.99 1453.27 Q2329.07 1457.86 2329.07 1466.61 Q2329.07 1475.33 2325.99 1479.94 Q2322.94 1484.52 2317.13 1484.52 Q2311.32 1484.52 2308.24 1479.94 Q2305.18 1475.33 2305.18 1466.61 Q2305.18 1457.86 2308.24 1453.27 Q2311.32 1448.67 2317.13 1448.67 Z" fill="#000000" fill-rule="evenodd" fill-opacity="1" /><path clip-path="url(#clip190)" d="M 0 0 M1124.85 1520.52 L1131.28 1520.52 L1131.28 1568.04 L1124.85 1568.04 L1124.85 1520.52 Z" fill="#000000" fill-rule="evenodd" fill-opacity="1" /><path clip-path="url(#clip190)" d="M 0 0 M1143.22 1522.27 L1143.22 1532.4 L1155.28 1532.4 L1155.28 1536.95 L1143.22 1536.95 L1143.22 1556.3 Q1143.22 1560.66 1144.39 1561.9 Q1145.6 1563.14 1149.26 1563.14 L1155.28 1563.14 L1155.28 1568.04 L1149.26 1568.04 Q1142.48 1568.04 1139.91 1565.53 Q1137.33 1562.98 1137.33 1556.3 L1137.33 1536.95 L1133.03 1536.95 L1133.03 1532.4 L1137.33 1532.4 L1137.33 1522.27 L1143.22 1522.27 Z" fill="#000000" fill-rule="evenodd" fill-opacity="1" /><path clip-path="url(#clip190)" d="M 0 0 M1191.91 1548.76 L1191.91 1551.62 L1164.99 1551.62 Q1165.37 1557.67 1168.61 1560.85 Q1171.89 1564 1177.72 1564 Q1181.09 1564 1184.24 1563.17 Q1187.43 1562.35 1190.54 1560.69 L1190.54 1566.23 Q1187.39 1567.57 1184.08 1568.27 Q1180.77 1568.97 1177.37 1568.97 Q1168.84 1568.97 1163.84 1564 Q1158.88 1559.04 1158.88 1550.57 Q1158.88 1541.82 1163.59 1536.69 Q1168.33 1531.54 1176.35 1531.54 Q1183.54 1531.54 1187.71 1536.18 Q1191.91 1540.8 1191.91 1548.76 M1186.06 1547.04 Q1185.99 1542.23 1183.35 1539.37 Q1180.74 1536.5 1176.41 1536.5 Q1171.51 1536.5 1168.55 1539.27 Q1165.62 1542.04 1165.18 1547.07 L1186.06 1547.04 Z" fill="#000000" fill-rule="evenodd" fill-opacity="1" /><path clip-path="url(#clip190)" d="M 0 0 M1225.81 1539.24 Q1228.01 1535.29 1231.06 1533.41 Q1234.12 1531.54 1238.26 1531.54 Q1243.83 1531.54 1246.85 1535.45 Q1249.87 1539.33 1249.87 1546.53 L1249.87 1568.04 L1243.98 1568.04 L1243.98 1546.72 Q1243.98 1541.59 1242.17 1539.11 Q1240.36 1536.63 1236.63 1536.63 Q1232.08 1536.63 1229.44 1539.65 Q1226.8 1542.68 1226.8 1547.9 L1226.8 1568.04 L1220.91 1568.04 L1220.91 1546.72 Q1220.91 1541.56 1219.1 1539.11 Q1217.28 1536.63 1213.49 1536.63 Q1209.01 1536.63 1206.36 1539.68 Q1203.72 1542.71 1203.72 1547.9 L1203.72 1568.04 L1197.83 1568.04 L1197.83 1532.4 L1203.72 1532.4 L1203.72 1537.93 Q1205.73 1534.66 1208.53 1533.1 Q1211.33 1531.54 1215.18 1531.54 Q1219.06 1531.54 1221.77 1533.51 Q1224.51 1535.48 1225.81 1539.24 Z" fill="#000000" fill-rule="evenodd" fill-opacity="1" /><path clip-path="url(#clip190)" d="M 0 0 M1276.74 1532.4 L1282.59 1532.4 L1282.59 1568.04 L1276.74 1568.04 L1276.74 1532.4 M1276.74 1518.52 L1282.59 1518.52 L1282.59 1525.93 L1276.74 1525.93 L1276.74 1518.52 Z" fill="#000000" fill-rule="evenodd" fill-opacity="1" /><path clip-path="url(#clip190)" d="M 0 0 M1318.37 1546.53 L1318.37 1568.04 L1312.51 1568.04 L1312.51 1546.72 Q1312.51 1541.66 1310.54 1539.14 Q1308.57 1536.63 1304.62 1536.63 Q1299.88 1536.63 1297.14 1539.65 Q1294.4 1542.68 1294.4 1547.9 L1294.4 1568.04 L1288.51 1568.04 L1288.51 1532.4 L1294.4 1532.4 L1294.4 1537.93 Q1296.5 1534.72 1299.33 1533.13 Q1302.2 1531.54 1305.92 1531.54 Q1312.07 1531.54 1315.22 1535.36 Q1318.37 1539.14 1318.37 1546.53 Z" fill="#000000" fill-rule="evenodd" fill-opacity="1" /><path clip-path="url(#clip190)" d="M 0 0 M1347.97 1537.81 L1347.97 1518.52 L1353.83 1518.52 L1353.83 1568.04 L1347.97 1568.04 L1347.97 1562.7 Q1346.12 1565.88 1343.29 1567.44 Q1340.49 1568.97 1336.54 1568.97 Q1330.08 1568.97 1326.01 1563.81 Q1321.96 1558.65 1321.96 1550.25 Q1321.96 1541.85 1326.01 1536.69 Q1330.08 1531.54 1336.54 1531.54 Q1340.49 1531.54 1343.29 1533.1 Q1346.12 1534.62 1347.97 1537.81 M1328.01 1550.25 Q1328.01 1556.71 1330.65 1560.4 Q1333.33 1564.07 1337.97 1564.07 Q1342.62 1564.07 1345.3 1560.4 Q1347.97 1556.71 1347.97 1550.25 Q1347.97 1543.79 1345.3 1540.13 Q1342.62 1536.44 1337.97 1536.44 Q1333.33 1536.44 1330.65 1540.13 Q1328.01 1543.79 1328.01 1550.25 Z" fill="#000000" fill-rule="evenodd" fill-opacity="1" /><path clip-path="url(#clip190)" d="M 0 0 M1390.46 1548.76 L1390.46 1551.62 L1363.53 1551.62 Q1363.91 1557.67 1367.16 1560.85 Q1370.44 1564 1376.26 1564 Q1379.64 1564 1382.79 1563.17 Q1385.97 1562.35 1389.09 1560.69 L1389.09 1566.23 Q1385.94 1567.57 1382.63 1568.27 Q1379.32 1568.97 1375.91 1568.97 Q1367.38 1568.97 1362.39 1564 Q1357.42 1559.04 1357.42 1550.57 Q1357.42 1541.82 1362.13 1536.69 Q1366.87 1531.54 1374.9 1531.54 Q1382.09 1531.54 1386.26 1536.18 Q1390.46 1540.8 1390.46 1548.76 M1384.6 1547.04 Q1384.54 1542.23 1381.9 1539.37 Q1379.29 1536.5 1374.96 1536.5 Q1370.06 1536.5 1367.1 1539.27 Q1364.17 1542.04 1363.72 1547.07 L1384.6 1547.04 Z" fill="#000000" fill-rule="evenodd" fill-opacity="1" /><path clip-path="url(#clip190)" d="M 0 0 M1425.09 1532.4 L1412.2 1549.74 L1425.76 1568.04 L1418.85 1568.04 L1408.47 1554.04 L1398.1 1568.04 L1391.19 1568.04 L1405.04 1549.39 L1392.37 1532.4 L1399.28 1532.4 L1408.73 1545.1 L1418.18 1532.4 L1425.09 1532.4 Z" fill="#000000" fill-rule="evenodd" fill-opacity="1" /><polyline clip-path="url(#clip192)" style="stroke:#000000; stroke-width:2; stroke-opacity:0.1; fill:none" points="
  197.852,1243.39 2352.76,1243.39 
  "/>
<polyline clip-path="url(#clip192)" style="stroke:#000000; stroke-width:2; stroke-opacity:0.1; fill:none" points="
  197.852,964.053 2352.76,964.053 
  "/>
<polyline clip-path="url(#clip192)" style="stroke:#000000; stroke-width:2; stroke-opacity:0.1; fill:none" points="
  197.852,684.715 2352.76,684.715 
  "/>
<polyline clip-path="url(#clip192)" style="stroke:#000000; stroke-width:2; stroke-opacity:0.1; fill:none" points="
  197.852,405.377 2352.76,405.377 
  "/>
<polyline clip-path="url(#clip192)" style="stroke:#000000; stroke-width:2; stroke-opacity:0.1; fill:none" points="
  197.852,126.038 2352.76,126.038 
  "/>
<polyline clip-path="url(#clip190)" style="stroke:#000000; stroke-width:4; stroke-opacity:1; fill:none" points="
  197.852,1423.18 197.852,123.472 
  "/>
<polyline clip-path="url(#clip190)" style="stroke:#000000; stroke-width:4; stroke-opacity:1; fill:none" points="
  197.852,1243.39 223.711,1243.39 
  "/>
<polyline clip-path="url(#clip190)" style="stroke:#000000; stroke-width:4; stroke-opacity:1; fill:none" points="
  197.852,964.053 223.711,964.053 
  "/>
<polyline clip-path="url(#clip190)" style="stroke:#000000; stroke-width:4; stroke-opacity:1; fill:none" points="
  197.852,684.715 223.711,684.715 
  "/>
<polyline clip-path="url(#clip190)" style="stroke:#000000; stroke-width:4; stroke-opacity:1; fill:none" points="
  197.852,405.377 223.711,405.377 
  "/>
<polyline clip-path="url(#clip190)" style="stroke:#000000; stroke-width:4; stroke-opacity:1; fill:none" points="
  197.852,126.038 223.711,126.038 
  "/>
<path clip-path="url(#clip190)" d="M 0 0 M145.533 1256.74 L161.852 1256.74 L161.852 1260.67 L139.908 1260.67 L139.908 1256.74 Q142.57 1253.98 147.153 1249.35 Q151.76 1244.7 152.941 1243.36 Q155.186 1240.83 156.065 1239.1 Q156.968 1237.34 156.968 1235.65 Q156.968 1232.89 155.024 1231.16 Q153.103 1229.42 150.001 1229.42 Q147.802 1229.42 145.348 1230.19 Q142.917 1230.95 140.14 1232.5 L140.14 1227.78 Q142.964 1226.64 145.417 1226.06 Q147.871 1225.49 149.908 1225.49 Q155.278 1225.49 158.473 1228.17 Q161.667 1230.86 161.667 1235.35 Q161.667 1237.48 160.857 1239.4 Q160.07 1241.3 157.964 1243.89 Q157.385 1244.56 154.283 1247.78 Q151.181 1250.97 145.533 1256.74 Z" fill="#000000" fill-rule="evenodd" fill-opacity="1" /><path clip-path="url(#clip190)" d="M 0 0 M152.269 950.847 L140.464 969.296 L152.269 969.296 L152.269 950.847 M151.042 946.773 L156.922 946.773 L156.922 969.296 L161.852 969.296 L161.852 973.185 L156.922 973.185 L156.922 981.333 L152.269 981.333 L152.269 973.185 L136.667 973.185 L136.667 968.671 L151.042 946.773 Z" fill="#000000" fill-rule="evenodd" fill-opacity="1" /><path clip-path="url(#clip190)" d="M 0 0 M150.325 682.851 Q147.177 682.851 145.325 685.004 Q143.496 687.157 143.496 690.907 Q143.496 694.634 145.325 696.81 Q147.177 698.962 150.325 698.962 Q153.473 698.962 155.302 696.81 Q157.153 694.634 157.153 690.907 Q157.153 687.157 155.302 685.004 Q153.473 682.851 150.325 682.851 M159.607 668.199 L159.607 672.458 Q157.848 671.625 156.042 671.185 Q154.26 670.745 152.501 670.745 Q147.871 670.745 145.417 673.87 Q142.987 676.995 142.64 683.314 Q144.005 681.3 146.066 680.236 Q148.126 679.148 150.603 679.148 Q155.811 679.148 158.82 682.319 Q161.852 685.467 161.852 690.907 Q161.852 696.231 158.704 699.448 Q155.556 702.666 150.325 702.666 Q144.329 702.666 141.158 698.083 Q137.987 693.476 137.987 684.749 Q137.987 676.555 141.876 671.694 Q145.765 666.81 152.316 666.81 Q154.075 666.81 155.857 667.157 Q157.663 667.504 159.607 668.199 Z" fill="#000000" fill-rule="evenodd" fill-opacity="1" /><path clip-path="url(#clip190)" d="M 0 0 M150.001 406.245 Q146.667 406.245 144.746 408.027 Q142.848 409.809 142.848 412.934 Q142.848 416.059 144.746 417.842 Q146.667 419.624 150.001 419.624 Q153.334 419.624 155.255 417.842 Q157.177 416.036 157.177 412.934 Q157.177 409.809 155.255 408.027 Q153.357 406.245 150.001 406.245 M145.325 404.254 Q142.316 403.513 140.626 401.453 Q138.959 399.393 138.959 396.43 Q138.959 392.286 141.899 389.879 Q144.862 387.472 150.001 387.472 Q155.163 387.472 158.103 389.879 Q161.042 392.286 161.042 396.43 Q161.042 399.393 159.353 401.453 Q157.686 403.513 154.7 404.254 Q158.079 405.041 159.954 407.333 Q161.852 409.624 161.852 412.934 Q161.852 417.958 158.774 420.643 Q155.718 423.328 150.001 423.328 Q144.283 423.328 141.204 420.643 Q138.149 417.958 138.149 412.934 Q138.149 409.624 140.047 407.333 Q141.945 405.041 145.325 404.254 M143.612 396.87 Q143.612 399.555 145.279 401.06 Q146.968 402.564 150.001 402.564 Q153.01 402.564 154.7 401.06 Q156.413 399.555 156.413 396.87 Q156.413 394.185 154.7 392.68 Q153.01 391.175 150.001 391.175 Q146.968 391.175 145.279 392.68 Q143.612 394.185 143.612 396.87 Z" fill="#000000" fill-rule="evenodd" fill-opacity="1" /><path clip-path="url(#clip190)" d="M 0 0 M114.931 139.383 L122.57 139.383 L122.57 113.018 L114.26 114.684 L114.26 110.425 L122.524 108.758 L127.2 108.758 L127.2 139.383 L134.839 139.383 L134.839 143.318 L114.931 143.318 L114.931 139.383 Z" fill="#000000" fill-rule="evenodd" fill-opacity="1" /><path clip-path="url(#clip190)" d="M 0 0 M149.908 111.837 Q146.297 111.837 144.468 115.402 Q142.663 118.944 142.663 126.073 Q142.663 133.18 144.468 136.744 Q146.297 140.286 149.908 140.286 Q153.542 140.286 155.348 136.744 Q157.177 133.18 157.177 126.073 Q157.177 118.944 155.348 115.402 Q153.542 111.837 149.908 111.837 M149.908 108.133 Q155.718 108.133 158.774 112.74 Q161.852 117.323 161.852 126.073 Q161.852 134.8 158.774 139.406 Q155.718 143.99 149.908 143.99 Q144.098 143.99 141.019 139.406 Q137.964 134.8 137.964 126.073 Q137.964 117.323 141.019 112.74 Q144.098 108.133 149.908 108.133 Z" fill="#000000" fill-rule="evenodd" fill-opacity="1" /><path clip-path="url(#clip190)" d="M 0 0 M18.0438 824.522 L24.314 824.522 Q22.5634 828.182 21.704 831.429 Q20.8447 834.675 20.8447 837.699 Q20.8447 842.951 22.8817 845.815 Q24.9187 848.648 28.6745 848.648 Q31.8255 848.648 33.4488 846.77 Q35.0402 844.861 36.0269 839.577 L36.8226 835.694 Q38.1912 828.501 41.6605 825.095 Q45.098 821.658 50.8908 821.658 Q57.7976 821.658 61.3624 826.305 Q64.9272 830.92 64.9272 839.864 Q64.9272 843.237 64.1633 847.057 Q63.3994 850.844 61.9035 854.918 L55.2831 854.918 Q57.4793 851.004 58.5933 847.248 Q59.7073 843.492 59.7073 839.864 Q59.7073 834.357 57.543 831.365 Q55.3786 828.373 51.3682 828.373 Q47.8671 828.373 45.8937 830.538 Q43.9204 832.67 42.9337 837.572 L42.1698 841.487 Q40.7375 848.68 37.682 851.895 Q34.6264 855.109 29.1837 855.109 Q22.8817 855.109 19.2532 850.685 Q15.6248 846.229 15.6248 838.431 Q15.6248 835.089 16.2295 831.62 Q16.8343 828.151 18.0438 824.522 Z" fill="#000000" fill-rule="evenodd" fill-opacity="1" /><path clip-path="url(#clip190)" d="M 0 0 M29.7248 789.861 L35.1993 789.861 Q33.8307 792.344 33.1623 794.858 Q32.4621 797.341 32.4621 799.887 Q32.4621 805.584 36.0905 808.735 Q39.6872 811.886 46.212 811.886 Q52.7369 811.886 56.3653 808.735 Q59.9619 805.584 59.9619 799.887 Q59.9619 797.341 59.2935 794.858 Q58.5933 792.344 57.2247 789.861 L62.6355 789.861 Q63.7814 792.312 64.3543 794.953 Q64.9272 797.563 64.9272 800.523 Q64.9272 808.576 59.8664 813.319 Q54.8057 818.061 46.212 818.061 Q37.491 818.061 32.4939 813.287 Q27.4968 808.481 27.4968 800.142 Q27.4968 797.436 28.0697 794.858 Q28.6108 792.28 29.7248 789.861 Z" fill="#000000" fill-rule="evenodd" fill-opacity="1" /><path clip-path="url(#clip190)" d="M 0 0 M32.4621 769.904 Q32.4621 774.615 36.1542 777.352 Q39.8145 780.09 46.212 780.09 Q52.6095 780.09 56.3017 777.384 Q59.9619 774.647 59.9619 769.904 Q59.9619 765.226 56.2698 762.488 Q52.5777 759.751 46.212 759.751 Q39.8781 759.751 36.186 762.488 Q32.4621 765.226 32.4621 769.904 M27.4968 769.904 Q27.4968 762.266 32.4621 757.905 Q37.4273 753.545 46.212 753.545 Q54.9649 753.545 59.9619 757.905 Q64.9272 762.266 64.9272 769.904 Q64.9272 777.575 59.9619 781.936 Q54.9649 786.264 46.212 786.264 Q37.4273 786.264 32.4621 781.936 Q27.4968 777.575 27.4968 769.904 Z" fill="#000000" fill-rule="evenodd" fill-opacity="1" /><path clip-path="url(#clip190)" d="M 0 0 M33.8307 726.745 Q33.2578 727.732 33.0032 728.909 Q32.7167 730.055 32.7167 731.456 Q32.7167 736.421 35.9632 739.094 Q39.1779 741.736 45.2253 741.736 L64.0042 741.736 L64.0042 747.624 L28.3562 747.624 L28.3562 741.736 L33.8944 741.736 Q30.6479 739.89 29.0883 736.93 Q27.4968 733.97 27.4968 729.737 Q27.4968 729.132 27.5923 728.4 Q27.656 727.668 27.8151 726.777 L33.8307 726.745 Z" fill="#000000" fill-rule="evenodd" fill-opacity="1" /><path clip-path="url(#clip190)" d="M 0 0 M44.7161 691.543 L47.5806 691.543 L47.5806 718.47 Q53.6281 718.088 56.8109 714.841 Q59.9619 711.563 59.9619 705.738 Q59.9619 702.364 59.1344 699.213 Q58.3069 696.03 56.6518 692.911 L62.1899 692.911 Q63.5267 696.062 64.227 699.372 Q64.9272 702.683 64.9272 706.088 Q64.9272 714.618 59.9619 719.615 Q54.9967 724.581 46.5303 724.581 Q37.7774 724.581 32.6531 719.87 Q27.4968 715.128 27.4968 707.107 Q27.4968 699.913 32.1438 695.744 Q36.7589 691.543 44.7161 691.543 M42.9973 697.399 Q38.1912 697.463 35.3266 700.104 Q32.4621 702.714 32.4621 707.043 Q32.4621 711.945 35.2312 714.905 Q38.0002 717.833 43.0292 718.279 L42.9973 697.399 Z" fill="#000000" fill-rule="evenodd" fill-opacity="1" /><path clip-path="url(#clip190)" d="M 0 0 M1190.56 14.0809 L1190.56 22.0612 Q1185.9 19.8332 1181.77 18.7395 Q1177.64 17.6457 1173.79 17.6457 Q1167.1 17.6457 1163.46 20.2383 Q1159.85 22.8309 1159.85 27.611 Q1159.85 31.6214 1162.24 33.6873 Q1164.67 35.7128 1171.4 36.9686 L1176.34 37.9813 Q1185.5 39.7232 1189.83 44.1387 Q1194.21 48.5136 1194.21 55.8863 Q1194.21 64.6767 1188.29 69.2137 Q1182.42 73.7508 1171.03 73.7508 Q1166.74 73.7508 1161.88 72.7785 Q1157.06 71.8063 1151.87 69.9024 L1151.87 61.4765 Q1156.86 64.2716 1161.64 65.6895 Q1166.42 67.1073 1171.03 67.1073 Q1178.04 67.1073 1181.85 64.3527 Q1185.66 61.598 1185.66 56.4939 Q1185.66 52.0379 1182.9 49.5264 Q1180.19 47.0148 1173.95 45.759 L1168.97 44.7868 Q1159.81 42.9639 1155.72 39.075 Q1151.63 35.1862 1151.63 28.2591 Q1151.63 20.2383 1157.26 15.6203 Q1162.93 11.0023 1172.86 11.0023 Q1177.11 11.0023 1181.53 11.7719 Q1185.94 12.5416 1190.56 14.0809 Z" fill="#000000" fill-rule="evenodd" fill-opacity="1" /><path clip-path="url(#clip190)" d="M 0 0 M1234.67 28.9478 L1234.67 35.9153 Q1231.51 34.1734 1228.31 33.3227 Q1225.15 32.4315 1221.91 32.4315 Q1214.66 32.4315 1210.65 37.0496 Q1206.64 41.6271 1206.64 49.9314 Q1206.64 58.2358 1210.65 62.8538 Q1214.66 67.4314 1221.91 67.4314 Q1225.15 67.4314 1228.31 66.5807 Q1231.51 65.6895 1234.67 63.9476 L1234.67 70.8341 Q1231.55 72.2924 1228.19 73.0216 Q1224.87 73.7508 1221.1 73.7508 Q1210.85 73.7508 1204.82 67.3098 Q1198.78 60.8689 1198.78 49.9314 Q1198.78 38.832 1204.86 32.472 Q1210.98 26.1121 1221.59 26.1121 Q1225.03 26.1121 1228.31 26.8413 Q1231.59 27.5299 1234.67 28.9478 Z" fill="#000000" fill-rule="evenodd" fill-opacity="1" /><path clip-path="url(#clip190)" d="M 0 0 M1260.07 32.4315 Q1254.08 32.4315 1250.59 37.1306 Q1247.11 41.7891 1247.11 49.9314 Q1247.11 58.0738 1250.55 62.7728 Q1254.04 67.4314 1260.07 67.4314 Q1266.03 67.4314 1269.51 62.7323 Q1273 58.0333 1273 49.9314 Q1273 41.8701 1269.51 37.1711 Q1266.03 32.4315 1260.07 32.4315 M1260.07 26.1121 Q1269.79 26.1121 1275.34 32.4315 Q1280.89 38.7509 1280.89 49.9314 Q1280.89 61.0714 1275.34 67.4314 Q1269.79 73.7508 1260.07 73.7508 Q1250.31 73.7508 1244.76 67.4314 Q1239.25 61.0714 1239.25 49.9314 Q1239.25 38.7509 1244.76 32.4315 Q1250.31 26.1121 1260.07 26.1121 Z" fill="#000000" fill-rule="evenodd" fill-opacity="1" /><path clip-path="url(#clip190)" d="M 0 0 M1315 34.1734 Q1313.75 33.4443 1312.25 33.1202 Q1310.79 32.7556 1309.01 32.7556 Q1302.69 32.7556 1299.29 36.8875 Q1295.92 40.9789 1295.92 48.6757 L1295.92 72.576 L1288.43 72.576 L1288.43 27.2059 L1295.92 27.2059 L1295.92 34.2544 Q1298.27 30.1225 1302.04 28.1376 Q1305.81 26.1121 1311.2 26.1121 Q1311.96 26.1121 1312.9 26.2337 Q1313.83 26.3147 1314.96 26.5172 L1315 34.1734 Z" fill="#000000" fill-rule="evenodd" fill-opacity="1" /><path clip-path="url(#clip190)" d="M 0 0 M1359.81 48.0275 L1359.81 51.6733 L1325.54 51.6733 Q1326.02 59.3701 1330.15 63.421 Q1334.33 67.4314 1341.74 67.4314 Q1346.03 67.4314 1350.04 66.3781 Q1354.09 65.3249 1358.06 63.2184 L1358.06 70.267 Q1354.05 71.9684 1349.84 72.8596 Q1345.63 73.7508 1341.29 73.7508 Q1330.44 73.7508 1324.08 67.4314 Q1317.76 61.1119 1317.76 50.3365 Q1317.76 39.1965 1323.75 32.6746 Q1329.79 26.1121 1340 26.1121 Q1349.15 26.1121 1354.46 32.0264 Q1359.81 37.9003 1359.81 48.0275 M1352.35 45.84 Q1352.27 39.7232 1348.91 36.0774 Q1345.59 32.4315 1340.08 32.4315 Q1333.84 32.4315 1330.07 35.9558 Q1326.35 39.4801 1325.78 45.8805 L1352.35 45.84 Z" fill="#000000" fill-rule="evenodd" fill-opacity="1" /><path clip-path="url(#clip190)" d="M 0 0 M1396.55 28.5427 L1396.55 35.5912 Q1393.39 33.9709 1389.99 33.1607 Q1386.58 32.3505 1382.94 32.3505 Q1377.39 32.3505 1374.59 34.0519 Q1371.84 35.7533 1371.84 39.156 Q1371.84 41.7486 1373.82 43.2475 Q1375.81 44.7058 1381.8 46.0426 L1384.35 46.6097 Q1392.29 48.3111 1395.62 51.4303 Q1398.98 54.509 1398.98 60.0587 Q1398.98 66.3781 1393.96 70.0644 Q1388.97 73.7508 1380.22 73.7508 Q1376.58 73.7508 1372.61 73.0216 Q1368.68 72.3329 1364.3 70.9151 L1364.3 63.2184 Q1368.43 65.3654 1372.44 66.4591 Q1376.46 67.5124 1380.38 67.5124 Q1385.65 67.5124 1388.49 65.73 Q1391.32 63.9071 1391.32 60.6258 Q1391.32 57.5877 1389.26 55.9673 Q1387.23 54.3469 1380.3 52.8481 L1377.71 52.2405 Q1370.78 50.7821 1367.71 47.7845 Q1364.63 44.7463 1364.63 39.4801 Q1364.63 33.0797 1369.16 29.5959 Q1373.7 26.1121 1382.05 26.1121 Q1386.18 26.1121 1389.82 26.7198 Q1393.47 27.3274 1396.55 28.5427 Z" fill="#000000" fill-rule="evenodd" fill-opacity="1" /><polyline clip-path="url(#clip192)" style="stroke:#009af9; stroke-width:4; stroke-opacity:1; fill:none" points="
  258.84,1383.06 279.375,1103.72 299.91,684.715 320.444,405.377 340.979,405.377 361.513,405.377 382.048,684.715 402.583,1103.72 423.117,1383.06 443.652,964.053 
  464.187,405.377 484.721,1103.72 505.256,1103.72 525.79,1383.06 546.325,1103.72 566.86,1383.06 587.394,1103.72 607.929,964.053 628.464,405.377 648.998,265.708 
  669.533,1383.06 690.067,824.384 710.602,824.384 731.137,545.046 751.671,405.377 772.206,405.377 792.741,405.377 813.275,1243.39 833.81,964.053 854.344,1383.06 
  874.879,824.384 895.414,1383.06 915.948,545.046 936.483,405.377 957.018,545.046 977.552,1103.72 998.087,1383.06 1018.62,265.708 1039.16,1103.72 1059.69,1243.39 
  1080.23,1243.39 1100.76,964.053 1121.29,1103.72 1141.83,824.384 1162.36,545.046 1182.9,265.708 1203.43,405.377 1223.97,1103.72 1244.5,545.046 1265.04,405.377 
  1285.57,265.708 1306.11,545.046 1326.64,265.708 1347.18,405.377 1367.71,1383.06 1388.24,545.046 1408.78,1243.39 1429.31,1383.06 1449.85,265.708 1470.38,405.377 
  1490.92,265.708 1511.45,824.384 1531.99,1243.39 1552.52,405.377 1573.06,824.384 1593.59,824.384 1614.13,1383.06 1634.66,824.384 1655.19,1383.06 1675.73,684.715 
  1696.26,265.708 1716.8,1103.72 1737.33,964.053 1757.87,824.384 1778.4,405.377 1798.94,824.384 1819.47,964.053 1840.01,824.384 1860.54,684.715 1881.08,684.715 
  1901.61,964.053 1922.14,1243.39 1942.68,1243.39 1963.21,405.377 1983.75,1243.39 2004.28,545.046 2024.82,824.384 2045.35,265.708 2065.89,405.377 2086.42,684.715 
  2106.96,824.384 2127.49,1103.72 2148.03,1243.39 2168.56,405.377 2189.09,265.708 2209.63,1243.39 2230.16,684.715 2250.7,824.384 2271.23,405.377 2291.77,964.053 
  
  "/>
<polyline clip-path="url(#clip192)" style="stroke:#e26f46; stroke-width:4; stroke-opacity:1; fill:none" points="
  258.84,1383.06 279.375,964.053 299.91,545.046 320.444,265.708 340.979,265.708 361.513,265.708 382.048,545.046 402.583,964.053 423.117,1383.06 443.652,824.384 
  464.187,265.708 484.721,964.053 505.256,964.053 525.79,1383.06 546.325,964.053 566.86,1383.06 587.394,964.053 607.929,824.384 628.464,265.708 648.998,265.708 
  669.533,1383.06 690.067,684.715 710.602,684.715 731.137,405.377 751.671,265.708 772.206,265.708 792.741,265.708 813.275,1243.39 833.81,824.384 854.344,1383.06 
  874.879,684.715 895.414,1383.06 915.948,405.377 936.483,265.708 957.018,405.377 977.552,964.053 998.087,1383.06 1018.62,265.708 1039.16,964.053 1059.69,1243.39 
  1080.23,1243.39 1100.76,824.384 1121.29,964.053 1141.83,684.715 1162.36,405.377 1182.9,265.708 1203.43,265.708 1223.97,964.053 1244.5,405.377 1265.04,265.708 
  1285.57,265.708 1306.11,405.377 1326.64,265.708 1347.18,265.708 1367.71,1383.06 1388.24,405.377 1408.78,1243.39 1429.31,1383.06 1449.85,265.708 1470.38,265.708 
  1490.92,265.708 1511.45,684.715 1531.99,1243.39 1552.52,265.708 1573.06,684.715 1593.59,684.715 1614.13,1383.06 1634.66,684.715 1655.19,1383.06 1675.73,545.046 
  1696.26,265.708 1716.8,964.053 1737.33,824.384 1757.87,684.715 1778.4,265.708 1798.94,684.715 1819.47,824.384 1840.01,684.715 1860.54,545.046 1881.08,545.046 
  1901.61,824.384 1922.14,1243.39 1942.68,1243.39 1963.21,265.708 1983.75,1243.39 2004.28,405.377 2024.82,684.715 2045.35,265.708 2065.89,265.708 2086.42,545.046 
  2106.96,684.715 2127.49,964.053 2148.03,1243.39 2168.56,265.708 2189.09,265.708 2209.63,1243.39 2230.16,545.046 2250.7,684.715 2271.23,265.708 2291.77,824.384 
  
  "/>
<polyline clip-path="url(#clip192)" style="stroke:#3da44d; stroke-width:4; stroke-opacity:1; fill:none" points="
  258.84,1383.06 279.375,1033.89 299.91,614.88 320.444,335.542 340.979,335.542 361.513,335.542 382.048,614.88 402.583,1033.89 423.117,1383.06 443.652,894.218 
  464.187,335.542 484.721,1033.89 505.256,1033.89 525.79,1383.06 546.325,1033.89 566.86,1383.06 587.394,1033.89 607.929,894.218 628.464,335.542 648.998,265.708 
  669.533,1383.06 690.067,754.549 710.602,754.549 731.137,475.211 751.671,335.542 772.206,335.542 792.741,335.542 813.275,1243.39 833.81,894.218 854.344,1383.06 
  874.879,754.549 895.414,1383.06 915.948,475.211 936.483,335.542 957.018,475.211 977.552,1033.89 998.087,1383.06 1018.62,265.708 1039.16,1033.89 1059.69,1243.39 
  1080.23,1243.39 1100.76,894.218 1121.29,1033.89 1141.83,754.549 1162.36,475.211 1182.9,265.708 1203.43,335.542 1223.97,1033.89 1244.5,475.211 1265.04,335.542 
  1285.57,265.708 1306.11,475.211 1326.64,265.708 1347.18,335.542 1367.71,1383.06 1388.24,475.211 1408.78,1243.39 1429.31,1383.06 1449.85,265.708 1470.38,335.542 
  1490.92,265.708 1511.45,754.549 1531.99,1243.39 1552.52,335.542 1573.06,754.549 1593.59,754.549 1614.13,1383.06 1634.66,754.549 1655.19,1383.06 1675.73,614.88 
  1696.26,265.708 1716.8,1033.89 1737.33,894.218 1757.87,754.549 1778.4,335.542 1798.94,754.549 1819.47,894.218 1840.01,754.549 1860.54,614.88 1881.08,614.88 
  1901.61,894.218 1922.14,1243.39 1942.68,1243.39 1963.21,335.542 1983.75,1243.39 2004.28,475.211 2024.82,754.549 2045.35,265.708 2065.89,335.542 2086.42,614.88 
  2106.96,754.549 2127.49,1033.89 2148.03,1243.39 2168.56,335.542 2189.09,265.708 2209.63,1243.39 2230.16,614.88 2250.7,754.549 2271.23,335.542 2291.77,894.218 
  
  "/>
<polyline clip-path="url(#clip192)" style="stroke:#c271d2; stroke-width:4; stroke-opacity:1; fill:none" points="
  258.84,1369.76 279.375,1032.48 299.91,601.658 320.444,345.762 340.979,346.533 361.513,369.581 382.048,600.194 402.583,1032.49 423.117,1381.88 443.652,913.92 
  464.187,343.412 484.721,1028.97 505.256,1035.35 525.79,1383.55 546.325,1036.12 566.86,1381.32 587.394,1049.82 607.929,894.537 628.464,348.241 648.998,238.315 
  669.533,1383.75 690.067,757.501 710.602,753.924 731.137,491.803 751.671,348.645 772.206,342.736 792.741,343.142 813.275,1248.98 833.81,904.03 854.344,1381.91 
  874.879,750.433 895.414,1375.94 915.948,478.619 936.483,375.435 957.018,480.515 977.552,1031.53 998.087,1382.82 1018.62,247.382 1039.16,1035.34 1059.69,1232.07 
  1080.23,1236.91 1100.76,903.946 1121.29,1039.3 1141.83,756.72 1162.36,483.701 1182.9,245.357 1203.43,342.321 1223.97,1030.96 1244.5,478.025 1265.04,342.418 
  1285.57,232.128 1306.11,488.169 1326.64,244.319 1347.18,355.055 1367.71,1382.23 1388.24,474.986 1408.78,1237.37 1429.31,1377.7 1449.85,239.784 1470.38,341.914 
  1490.92,245.329 1511.45,745.419 1531.99,1243.48 1552.52,342.834 1573.06,754.049 1593.59,754.353 1614.13,1378.02 1634.66,758.675 1655.19,1386.4 1675.73,599.306 
  1696.26,251.73 1716.8,1032.88 1737.33,897.989 1757.87,752.19 1778.4,347.149 1798.94,757.889 1819.47,905.028 1840.01,759.823 1860.54,599.951 1881.08,611.299 
  1901.61,899.228 1922.14,1242.2 1942.68,1245.27 1963.21,345.892 1983.75,1236.92 2004.28,481.248 2024.82,770.973 2045.35,232.755 2065.89,344.649 2086.42,602.738 
  2106.96,748.361 2127.49,1032.99 2148.03,1242.45 2168.56,364.37 2189.09,218.987 2209.63,1234.85 2230.16,608.646 2250.7,757.357 2271.23,343.564 2291.77,901.995 
  
  "/>
<polyline clip-path="url(#clip192)" style="stroke:#ac8d18; stroke-width:4; stroke-opacity:1; fill:none" points="
  258.84,1352.21 279.375,1057.57 299.91,635.698 320.444,354.451 340.979,354.451 361.513,354.451 382.048,635.698 402.583,1057.57 423.117,1352.21 443.652,923.642 
  464.187,354.451 484.721,1057.57 505.256,1057.57 525.79,1352.21 546.325,1057.57 566.86,1352.21 587.394,1057.57 607.929,923.642 628.464,354.451 648.998,160.256 
  669.533,1352.21 690.067,776.322 710.602,776.322 731.137,535.253 751.671,354.451 772.206,354.451 792.741,354.451 813.275,1204.89 833.81,923.642 854.344,1352.21 
  874.879,776.322 895.414,1352.21 915.948,535.253 936.483,354.451 957.018,535.253 977.552,1057.57 998.087,1352.21 1018.62,160.256 1039.16,1057.57 1059.69,1204.89 
  1080.23,1204.89 1100.76,923.642 1121.29,1057.57 1141.83,776.322 1162.36,535.253 1182.9,160.256 1203.43,354.451 1223.97,1057.57 1244.5,535.253 1265.04,354.451 
  1285.57,160.256 1306.11,535.253 1326.64,160.256 1347.18,354.451 1367.71,1352.21 1388.24,535.253 1408.78,1204.89 1429.31,1352.21 1449.85,160.256 1470.38,354.451 
  1490.92,160.256 1511.45,776.322 1531.99,1204.89 1552.52,354.451 1573.06,776.322 1593.59,776.322 1614.13,1352.21 1634.66,776.322 1655.19,1352.21 1675.73,635.698 
  1696.26,160.256 1716.8,1057.57 1737.33,923.642 1757.87,776.322 1778.4,354.451 1798.94,776.322 1819.47,923.642 1840.01,776.322 1860.54,635.698 1881.08,635.698 
  1901.61,923.642 1922.14,1204.89 1942.68,1204.89 1963.21,354.451 1983.75,1204.89 2004.28,535.253 2024.82,776.322 2045.35,160.256 2065.89,354.451 2086.42,635.698 
  2106.96,776.322 2127.49,1057.57 2148.03,1204.89 2168.56,354.451 2189.09,160.256 2209.63,1204.89 2230.16,635.698 2250.7,776.322 2271.23,354.451 2291.77,923.642 
  
  "/>
<path clip-path="url(#clip190)" d="
M1660.29 529.676 L2280.93 529.676 L2280.93 166.796 L1660.29 166.796  Z
  " fill="#ffffff" fill-rule="evenodd" fill-opacity="1"/>
<polyline clip-path="url(#clip190)" style="stroke:#000000; stroke-width:4; stroke-opacity:1; fill:none" points="
  1660.29,529.676 2280.93,529.676 2280.93,166.796 1660.29,166.796 1660.29,529.676 
  "/>
<polyline clip-path="url(#clip190)" style="stroke:#009af9; stroke-width:4; stroke-opacity:1; fill:none" points="
  1684.23,227.276 1827.89,227.276 
  "/>
<path clip-path="url(#clip190)" d="M 0 0 M1867.67 214.602 L1861.33 231.801 L1874.04 231.801 L1867.67 214.602 M1865.03 209.996 L1870.33 209.996 L1883.5 244.556 L1878.64 244.556 L1875.49 235.69 L1859.92 235.69 L1856.77 244.556 L1851.84 244.556 L1865.03 209.996 Z" fill="#000000" fill-rule="evenodd" fill-opacity="1" /><path clip-path="url(#clip190)" d="M 0 0 M1909.52 228.908 L1909.52 244.556 L1905.26 244.556 L1905.26 229.047 Q1905.26 225.366 1903.83 223.537 Q1902.39 221.709 1899.52 221.709 Q1896.07 221.709 1894.08 223.908 Q1892.09 226.107 1892.09 229.903 L1892.09 244.556 L1887.81 244.556 L1887.81 218.63 L1892.09 218.63 L1892.09 222.658 Q1893.62 220.32 1895.68 219.162 Q1897.76 218.005 1900.47 218.005 Q1904.94 218.005 1907.23 220.783 Q1909.52 223.537 1909.52 228.908 Z" fill="#000000" fill-rule="evenodd" fill-opacity="1" /><path clip-path="url(#clip190)" d="M 0 0 M1935.54 228.908 L1935.54 244.556 L1931.28 244.556 L1931.28 229.047 Q1931.28 225.366 1929.85 223.537 Q1928.41 221.709 1925.54 221.709 Q1922.09 221.709 1920.1 223.908 Q1918.11 226.107 1918.11 229.903 L1918.11 244.556 L1913.83 244.556 L1913.83 218.63 L1918.11 218.63 L1918.11 222.658 Q1919.64 220.32 1921.7 219.162 Q1923.78 218.005 1926.49 218.005 Q1930.96 218.005 1933.25 220.783 Q1935.54 223.537 1935.54 228.908 Z" fill="#000000" fill-rule="evenodd" fill-opacity="1" /><path clip-path="url(#clip190)" d="M 0 0 M1950.05 221.616 Q1946.63 221.616 1944.64 224.301 Q1942.65 226.963 1942.65 231.616 Q1942.65 236.269 1944.61 238.954 Q1946.61 241.616 1950.05 241.616 Q1953.46 241.616 1955.45 238.931 Q1957.44 236.246 1957.44 231.616 Q1957.44 227.01 1955.45 224.324 Q1953.46 221.616 1950.05 221.616 M1950.05 218.005 Q1955.61 218.005 1958.78 221.616 Q1961.95 225.227 1961.95 231.616 Q1961.95 237.982 1958.78 241.616 Q1955.61 245.227 1950.05 245.227 Q1944.48 245.227 1941.3 241.616 Q1938.16 237.982 1938.16 231.616 Q1938.16 225.227 1941.3 221.616 Q1944.48 218.005 1950.05 218.005 Z" fill="#000000" fill-rule="evenodd" fill-opacity="1" /><path clip-path="url(#clip190)" d="M 0 0 M1970.63 211.269 L1970.63 218.63 L1979.41 218.63 L1979.41 221.94 L1970.63 221.94 L1970.63 236.014 Q1970.63 239.185 1971.49 240.088 Q1972.37 240.991 1975.03 240.991 L1979.41 240.991 L1979.41 244.556 L1975.03 244.556 Q1970.1 244.556 1968.23 242.727 Q1966.35 240.875 1966.35 236.014 L1966.35 221.94 L1963.23 221.94 L1963.23 218.63 L1966.35 218.63 L1966.35 211.269 L1970.63 211.269 Z" fill="#000000" fill-rule="evenodd" fill-opacity="1" /><path clip-path="url(#clip190)" d="M 0 0 M1995.66 231.523 Q1990.49 231.523 1988.5 232.704 Q1986.51 233.884 1986.51 236.732 Q1986.51 239 1987.99 240.343 Q1989.5 241.662 1992.07 241.662 Q1995.61 241.662 1997.74 239.162 Q1999.89 236.639 1999.89 232.472 L1999.89 231.523 L1995.66 231.523 M2004.15 229.764 L2004.15 244.556 L1999.89 244.556 L1999.89 240.621 Q1998.43 242.982 1996.26 244.116 Q1994.08 245.227 1990.93 245.227 Q1986.95 245.227 1984.59 243.005 Q1982.25 240.759 1982.25 237.009 Q1982.25 232.634 1985.17 230.412 Q1988.11 228.19 1993.92 228.19 L1999.89 228.19 L1999.89 227.773 Q1999.89 224.834 1997.95 223.236 Q1996.03 221.616 1992.53 221.616 Q1990.31 221.616 1988.2 222.148 Q1986.1 222.681 1984.15 223.746 L1984.15 219.81 Q1986.49 218.908 1988.69 218.468 Q1990.89 218.005 1992.97 218.005 Q1998.6 218.005 2001.37 220.922 Q2004.15 223.838 2004.15 229.764 Z" fill="#000000" fill-rule="evenodd" fill-opacity="1" /><path clip-path="url(#clip190)" d="M 0 0 M2012.83 211.269 L2012.83 218.63 L2021.6 218.63 L2021.6 221.94 L2012.83 221.94 L2012.83 236.014 Q2012.83 239.185 2013.69 240.088 Q2014.57 240.991 2017.23 240.991 L2021.6 240.991 L2021.6 244.556 L2017.23 244.556 Q2012.3 244.556 2010.42 242.727 Q2008.55 240.875 2008.55 236.014 L2008.55 221.94 L2005.42 221.94 L2005.42 218.63 L2008.55 218.63 L2008.55 211.269 L2012.83 211.269 Z" fill="#000000" fill-rule="evenodd" fill-opacity="1" /><path clip-path="url(#clip190)" d="M 0 0 M2036.12 221.616 Q2032.69 221.616 2030.7 224.301 Q2028.71 226.963 2028.71 231.616 Q2028.71 236.269 2030.68 238.954 Q2032.67 241.616 2036.12 241.616 Q2039.52 241.616 2041.51 238.931 Q2043.5 236.246 2043.5 231.616 Q2043.5 227.01 2041.51 224.324 Q2039.52 221.616 2036.12 221.616 M2036.12 218.005 Q2041.67 218.005 2044.85 221.616 Q2048.02 225.227 2048.02 231.616 Q2048.02 237.982 2044.85 241.616 Q2041.67 245.227 2036.12 245.227 Q2030.54 245.227 2027.37 241.616 Q2024.22 237.982 2024.22 231.616 Q2024.22 225.227 2027.37 221.616 Q2030.54 218.005 2036.12 218.005 Z" fill="#000000" fill-rule="evenodd" fill-opacity="1" /><path clip-path="url(#clip190)" d="M 0 0 M2067.51 222.611 Q2066.79 222.195 2065.93 222.01 Q2065.1 221.801 2064.08 221.801 Q2060.47 221.801 2058.53 224.162 Q2056.6 226.5 2056.6 230.898 L2056.6 244.556 L2052.32 244.556 L2052.32 218.63 L2056.6 218.63 L2056.6 222.658 Q2057.95 220.297 2060.1 219.162 Q2062.25 218.005 2065.33 218.005 Q2065.77 218.005 2066.3 218.074 Q2066.84 218.121 2067.48 218.236 L2067.51 222.611 Z" fill="#000000" fill-rule="evenodd" fill-opacity="1" /><path clip-path="url(#clip190)" d="M 0 0 M2098.78 214.602 L2092.44 231.801 L2105.15 231.801 L2098.78 214.602 M2096.14 209.996 L2101.44 209.996 L2114.61 244.556 L2109.75 244.556 L2106.6 235.69 L2091.03 235.69 L2087.88 244.556 L2082.95 244.556 L2096.14 209.996 Z" fill="#000000" fill-rule="evenodd" fill-opacity="1" /><polyline clip-path="url(#clip190)" style="stroke:#e26f46; stroke-width:4; stroke-opacity:1; fill:none" points="
  1684.23,287.756 1827.89,287.756 
  "/>
<path clip-path="url(#clip190)" d="M 0 0 M1867.67 275.082 L1861.33 292.281 L1874.04 292.281 L1867.67 275.082 M1865.03 270.476 L1870.33 270.476 L1883.5 305.036 L1878.64 305.036 L1875.49 296.17 L1859.92 296.17 L1856.77 305.036 L1851.84 305.036 L1865.03 270.476 Z" fill="#000000" fill-rule="evenodd" fill-opacity="1" /><path clip-path="url(#clip190)" d="M 0 0 M1909.52 289.388 L1909.52 305.036 L1905.26 305.036 L1905.26 289.527 Q1905.26 285.846 1903.83 284.017 Q1902.39 282.189 1899.52 282.189 Q1896.07 282.189 1894.08 284.388 Q1892.09 286.587 1892.09 290.383 L1892.09 305.036 L1887.81 305.036 L1887.81 279.11 L1892.09 279.11 L1892.09 283.138 Q1893.62 280.8 1895.68 279.642 Q1897.76 278.485 1900.47 278.485 Q1904.94 278.485 1907.23 281.263 Q1909.52 284.017 1909.52 289.388 Z" fill="#000000" fill-rule="evenodd" fill-opacity="1" /><path clip-path="url(#clip190)" d="M 0 0 M1935.54 289.388 L1935.54 305.036 L1931.28 305.036 L1931.28 289.527 Q1931.28 285.846 1929.85 284.017 Q1928.41 282.189 1925.54 282.189 Q1922.09 282.189 1920.1 284.388 Q1918.11 286.587 1918.11 290.383 L1918.11 305.036 L1913.83 305.036 L1913.83 279.11 L1918.11 279.11 L1918.11 283.138 Q1919.64 280.8 1921.7 279.642 Q1923.78 278.485 1926.49 278.485 Q1930.96 278.485 1933.25 281.263 Q1935.54 284.017 1935.54 289.388 Z" fill="#000000" fill-rule="evenodd" fill-opacity="1" /><path clip-path="url(#clip190)" d="M 0 0 M1950.05 282.096 Q1946.63 282.096 1944.64 284.781 Q1942.65 287.443 1942.65 292.096 Q1942.65 296.749 1944.61 299.434 Q1946.61 302.096 1950.05 302.096 Q1953.46 302.096 1955.45 299.411 Q1957.44 296.726 1957.44 292.096 Q1957.44 287.49 1955.45 284.804 Q1953.46 282.096 1950.05 282.096 M1950.05 278.485 Q1955.61 278.485 1958.78 282.096 Q1961.95 285.707 1961.95 292.096 Q1961.95 298.462 1958.78 302.096 Q1955.61 305.707 1950.05 305.707 Q1944.48 305.707 1941.3 302.096 Q1938.16 298.462 1938.16 292.096 Q1938.16 285.707 1941.3 282.096 Q1944.48 278.485 1950.05 278.485 Z" fill="#000000" fill-rule="evenodd" fill-opacity="1" /><path clip-path="url(#clip190)" d="M 0 0 M1970.63 271.749 L1970.63 279.11 L1979.41 279.11 L1979.41 282.42 L1970.63 282.42 L1970.63 296.494 Q1970.63 299.665 1971.49 300.568 Q1972.37 301.471 1975.03 301.471 L1979.41 301.471 L1979.41 305.036 L1975.03 305.036 Q1970.1 305.036 1968.23 303.207 Q1966.35 301.355 1966.35 296.494 L1966.35 282.42 L1963.23 282.42 L1963.23 279.11 L1966.35 279.11 L1966.35 271.749 L1970.63 271.749 Z" fill="#000000" fill-rule="evenodd" fill-opacity="1" /><path clip-path="url(#clip190)" d="M 0 0 M1995.66 292.003 Q1990.49 292.003 1988.5 293.184 Q1986.51 294.364 1986.51 297.212 Q1986.51 299.48 1987.99 300.823 Q1989.5 302.142 1992.07 302.142 Q1995.61 302.142 1997.74 299.642 Q1999.89 297.119 1999.89 292.952 L1999.89 292.003 L1995.66 292.003 M2004.15 290.244 L2004.15 305.036 L1999.89 305.036 L1999.89 301.101 Q1998.43 303.462 1996.26 304.596 Q1994.08 305.707 1990.93 305.707 Q1986.95 305.707 1984.59 303.485 Q1982.25 301.239 1982.25 297.489 Q1982.25 293.114 1985.17 290.892 Q1988.11 288.67 1993.92 288.67 L1999.89 288.67 L1999.89 288.253 Q1999.89 285.314 1997.95 283.716 Q1996.03 282.096 1992.53 282.096 Q1990.31 282.096 1988.2 282.628 Q1986.1 283.161 1984.15 284.226 L1984.15 280.29 Q1986.49 279.388 1988.69 278.948 Q1990.89 278.485 1992.97 278.485 Q1998.6 278.485 2001.37 281.402 Q2004.15 284.318 2004.15 290.244 Z" fill="#000000" fill-rule="evenodd" fill-opacity="1" /><path clip-path="url(#clip190)" d="M 0 0 M2012.83 271.749 L2012.83 279.11 L2021.6 279.11 L2021.6 282.42 L2012.83 282.42 L2012.83 296.494 Q2012.83 299.665 2013.69 300.568 Q2014.57 301.471 2017.23 301.471 L2021.6 301.471 L2021.6 305.036 L2017.23 305.036 Q2012.3 305.036 2010.42 303.207 Q2008.55 301.355 2008.55 296.494 L2008.55 282.42 L2005.42 282.42 L2005.42 279.11 L2008.55 279.11 L2008.55 271.749 L2012.83 271.749 Z" fill="#000000" fill-rule="evenodd" fill-opacity="1" /><path clip-path="url(#clip190)" d="M 0 0 M2036.12 282.096 Q2032.69 282.096 2030.7 284.781 Q2028.71 287.443 2028.71 292.096 Q2028.71 296.749 2030.68 299.434 Q2032.67 302.096 2036.12 302.096 Q2039.52 302.096 2041.51 299.411 Q2043.5 296.726 2043.5 292.096 Q2043.5 287.49 2041.51 284.804 Q2039.52 282.096 2036.12 282.096 M2036.12 278.485 Q2041.67 278.485 2044.85 282.096 Q2048.02 285.707 2048.02 292.096 Q2048.02 298.462 2044.85 302.096 Q2041.67 305.707 2036.12 305.707 Q2030.54 305.707 2027.37 302.096 Q2024.22 298.462 2024.22 292.096 Q2024.22 285.707 2027.37 282.096 Q2030.54 278.485 2036.12 278.485 Z" fill="#000000" fill-rule="evenodd" fill-opacity="1" /><path clip-path="url(#clip190)" d="M 0 0 M2067.51 283.091 Q2066.79 282.675 2065.93 282.49 Q2065.1 282.281 2064.08 282.281 Q2060.47 282.281 2058.53 284.642 Q2056.6 286.98 2056.6 291.378 L2056.6 305.036 L2052.32 305.036 L2052.32 279.11 L2056.6 279.11 L2056.6 283.138 Q2057.95 280.777 2060.1 279.642 Q2062.25 278.485 2065.33 278.485 Q2065.77 278.485 2066.3 278.554 Q2066.84 278.601 2067.48 278.716 L2067.51 283.091 Z" fill="#000000" fill-rule="evenodd" fill-opacity="1" /><path clip-path="url(#clip190)" d="M 0 0 M2091.91 288.531 L2091.91 301.193 L2099.41 301.193 Q2103.18 301.193 2104.98 299.642 Q2106.81 298.068 2106.81 294.851 Q2106.81 291.61 2104.98 290.082 Q2103.18 288.531 2099.41 288.531 L2091.91 288.531 M2091.91 274.318 L2091.91 284.735 L2098.83 284.735 Q2102.25 284.735 2103.92 283.462 Q2105.61 282.165 2105.61 279.527 Q2105.61 276.911 2103.92 275.615 Q2102.25 274.318 2098.83 274.318 L2091.91 274.318 M2087.23 270.476 L2099.17 270.476 Q2104.52 270.476 2107.41 272.698 Q2110.31 274.92 2110.31 279.017 Q2110.31 282.189 2108.83 284.064 Q2107.35 285.939 2104.47 286.402 Q2107.92 287.142 2109.82 289.503 Q2111.74 291.841 2111.74 295.36 Q2111.74 299.989 2108.6 302.513 Q2105.45 305.036 2099.64 305.036 L2087.23 305.036 L2087.23 270.476 Z" fill="#000000" fill-rule="evenodd" fill-opacity="1" /><polyline clip-path="url(#clip190)" style="stroke:#3da44d; stroke-width:4; stroke-opacity:1; fill:none" points="
  1684.23,348.236 1827.89,348.236 
  "/>
<path clip-path="url(#clip190)" d="M 0 0 M1851.84 330.956 L1858.8 330.956 L1867.62 354.474 L1876.49 330.956 L1883.46 330.956 L1883.46 365.516 L1878.9 365.516 L1878.9 335.169 L1869.99 358.872 L1865.29 358.872 L1856.37 335.169 L1856.37 365.516 L1851.84 365.516 L1851.84 330.956 Z" fill="#000000" fill-rule="evenodd" fill-opacity="1" /><path clip-path="url(#clip190)" d="M 0 0 M1910.1 351.488 L1910.1 353.571 L1890.52 353.571 Q1890.8 357.969 1893.16 360.284 Q1895.54 362.576 1899.78 362.576 Q1902.23 362.576 1904.52 361.974 Q1906.84 361.372 1909.11 360.169 L1909.11 364.196 Q1906.81 365.168 1904.41 365.678 Q1902 366.187 1899.52 366.187 Q1893.32 366.187 1889.68 362.576 Q1886.07 358.965 1886.07 352.807 Q1886.07 346.442 1889.5 342.715 Q1892.95 338.965 1898.78 338.965 Q1904.01 338.965 1907.05 342.345 Q1910.1 345.701 1910.1 351.488 M1905.84 350.238 Q1905.8 346.743 1903.87 344.659 Q1901.98 342.576 1898.83 342.576 Q1895.26 342.576 1893.11 344.59 Q1890.98 346.604 1890.66 350.261 L1905.84 350.238 Z" fill="#000000" fill-rule="evenodd" fill-opacity="1" /><path clip-path="url(#clip190)" d="M 0 0 M1926.35 352.483 Q1921.19 352.483 1919.2 353.664 Q1917.21 354.844 1917.21 357.692 Q1917.21 359.96 1918.69 361.303 Q1920.19 362.622 1922.76 362.622 Q1926.3 362.622 1928.43 360.122 Q1930.59 357.599 1930.59 353.432 L1930.59 352.483 L1926.35 352.483 M1934.85 350.724 L1934.85 365.516 L1930.59 365.516 L1930.59 361.581 Q1929.13 363.942 1926.95 365.076 Q1924.78 366.187 1921.63 366.187 Q1917.65 366.187 1915.29 363.965 Q1912.95 361.719 1912.95 357.969 Q1912.95 353.594 1915.86 351.372 Q1918.8 349.15 1924.61 349.15 L1930.59 349.15 L1930.59 348.733 Q1930.59 345.794 1928.64 344.196 Q1926.72 342.576 1923.23 342.576 Q1921 342.576 1918.9 343.108 Q1916.79 343.641 1914.85 344.706 L1914.85 340.77 Q1917.18 339.868 1919.38 339.428 Q1921.58 338.965 1923.67 338.965 Q1929.29 338.965 1932.07 341.882 Q1934.85 344.798 1934.85 350.724 Z" fill="#000000" fill-rule="evenodd" fill-opacity="1" /><path clip-path="url(#clip190)" d="M 0 0 M1960.86 349.868 L1960.86 365.516 L1956.61 365.516 L1956.61 350.007 Q1956.61 346.326 1955.17 344.497 Q1953.73 342.669 1950.86 342.669 Q1947.42 342.669 1945.42 344.868 Q1943.43 347.067 1943.43 350.863 L1943.43 365.516 L1939.15 365.516 L1939.15 339.59 L1943.43 339.59 L1943.43 343.618 Q1944.96 341.28 1947.02 340.122 Q1949.11 338.965 1951.81 338.965 Q1956.28 338.965 1958.57 341.743 Q1960.86 344.497 1960.86 349.868 Z" fill="#000000" fill-rule="evenodd" fill-opacity="1" /><polyline clip-path="url(#clip190)" style="stroke:#c271d2; stroke-width:4; stroke-opacity:1; fill:none" points="
  1684.23,408.716 1827.89,408.716 
  "/>
<path clip-path="url(#clip190)" d="M 0 0 M1851.84 391.436 L1881.07 391.436 L1881.07 395.371 L1868.8 395.371 L1868.8 425.996 L1864.11 425.996 L1864.11 395.371 L1851.84 395.371 L1851.84 391.436 Z" fill="#000000" fill-rule="evenodd" fill-opacity="1" /><path clip-path="url(#clip190)" d="M 0 0 M1893.6 404.051 Q1892.88 403.635 1892.02 403.45 Q1891.19 403.241 1890.17 403.241 Q1886.56 403.241 1884.61 405.602 Q1882.69 407.94 1882.69 412.338 L1882.69 425.996 L1878.41 425.996 L1878.41 400.07 L1882.69 400.07 L1882.69 404.098 Q1884.04 401.737 1886.19 400.602 Q1888.34 399.445 1891.42 399.445 Q1891.86 399.445 1892.39 399.514 Q1892.93 399.561 1893.57 399.676 L1893.6 404.051 Z" fill="#000000" fill-rule="evenodd" fill-opacity="1" /><path clip-path="url(#clip190)" d="M 0 0 M1898.06 400.07 L1902.32 400.07 L1902.32 425.996 L1898.06 425.996 L1898.06 400.07 M1898.06 389.977 L1902.32 389.977 L1902.32 395.371 L1898.06 395.371 L1898.06 389.977 Z" fill="#000000" fill-rule="evenodd" fill-opacity="1" /><path clip-path="url(#clip190)" d="M 0 0 M1910.91 422.107 L1910.91 435.857 L1906.63 435.857 L1906.63 400.07 L1910.91 400.07 L1910.91 404.005 Q1912.25 401.69 1914.29 400.579 Q1916.35 399.445 1919.2 399.445 Q1923.92 399.445 1926.86 403.195 Q1929.82 406.945 1929.82 413.056 Q1929.82 419.167 1926.86 422.917 Q1923.92 426.667 1919.2 426.667 Q1916.35 426.667 1914.29 425.556 Q1912.25 424.422 1910.91 422.107 M1925.4 413.056 Q1925.4 408.357 1923.46 405.695 Q1921.54 403.01 1918.16 403.01 Q1914.78 403.01 1912.83 405.695 Q1910.91 408.357 1910.91 413.056 Q1910.91 417.755 1912.83 420.44 Q1914.78 423.102 1918.16 423.102 Q1921.54 423.102 1923.46 420.44 Q1925.4 417.755 1925.4 413.056 Z" fill="#000000" fill-rule="evenodd" fill-opacity="1" /><path clip-path="url(#clip190)" d="M 0 0 M1934.29 389.977 L1938.55 389.977 L1938.55 425.996 L1934.29 425.996 L1934.29 389.977 Z" fill="#000000" fill-rule="evenodd" fill-opacity="1" /><path clip-path="url(#clip190)" d="M 0 0 M1965.19 411.968 L1965.19 414.051 L1945.61 414.051 Q1945.89 418.449 1948.25 420.764 Q1950.63 423.056 1954.87 423.056 Q1957.32 423.056 1959.61 422.454 Q1961.93 421.852 1964.2 420.649 L1964.2 424.676 Q1961.91 425.648 1959.5 426.158 Q1957.09 426.667 1954.61 426.667 Q1948.41 426.667 1944.78 423.056 Q1941.17 419.445 1941.17 413.287 Q1941.17 406.922 1944.59 403.195 Q1948.04 399.445 1953.87 399.445 Q1959.11 399.445 1962.14 402.825 Q1965.19 406.181 1965.19 411.968 M1960.93 410.718 Q1960.89 407.223 1958.97 405.139 Q1957.07 403.056 1953.92 403.056 Q1950.36 403.056 1948.2 405.07 Q1946.07 407.084 1945.75 410.741 L1960.93 410.718 Z" fill="#000000" fill-rule="evenodd" fill-opacity="1" /><path clip-path="url(#clip190)" d="M 0 0 M1973.87 392.709 L1973.87 400.07 L1982.65 400.07 L1982.65 403.38 L1973.87 403.38 L1973.87 417.454 Q1973.87 420.625 1974.73 421.528 Q1975.61 422.431 1978.27 422.431 L1982.65 422.431 L1982.65 425.996 L1978.27 425.996 Q1973.34 425.996 1971.47 424.167 Q1969.59 422.315 1969.59 417.454 L1969.59 403.38 L1966.47 403.38 L1966.47 400.07 L1969.59 400.07 L1969.59 392.709 L1973.87 392.709 Z" fill="#000000" fill-rule="evenodd" fill-opacity="1" /><path clip-path="url(#clip190)" d="M 0 0 M2002.37 391.436 L2024.22 391.436 L2024.22 395.371 L2007.04 395.371 L2007.04 405.602 L2023.5 405.602 L2023.5 409.537 L2007.04 409.537 L2007.04 422.061 L2024.64 422.061 L2024.64 425.996 L2002.37 425.996 L2002.37 391.436 Z" fill="#000000" fill-rule="evenodd" fill-opacity="1" /><path clip-path="url(#clip190)" d="M 0 0 M2049.29 405.047 Q2050.89 402.176 2053.11 400.811 Q2055.33 399.445 2058.34 399.445 Q2062.39 399.445 2064.59 402.292 Q2066.79 405.116 2066.79 410.348 L2066.79 425.996 L2062.51 425.996 L2062.51 410.487 Q2062.51 406.76 2061.19 404.954 Q2059.87 403.149 2057.16 403.149 Q2053.85 403.149 2051.93 405.348 Q2050.01 407.547 2050.01 411.343 L2050.01 425.996 L2045.73 425.996 L2045.73 410.487 Q2045.73 406.737 2044.41 404.954 Q2043.09 403.149 2040.33 403.149 Q2037.07 403.149 2035.15 405.371 Q2033.23 407.57 2033.23 411.343 L2033.23 425.996 L2028.94 425.996 L2028.94 400.07 L2033.23 400.07 L2033.23 404.098 Q2034.68 401.713 2036.72 400.579 Q2038.76 399.445 2041.56 399.445 Q2044.38 399.445 2046.35 400.88 Q2048.34 402.315 2049.29 405.047 Z" fill="#000000" fill-rule="evenodd" fill-opacity="1" /><path clip-path="url(#clip190)" d="M 0 0 M2089.87 413.056 Q2089.87 408.357 2087.92 405.695 Q2086 403.01 2082.62 403.01 Q2079.24 403.01 2077.3 405.695 Q2075.38 408.357 2075.38 413.056 Q2075.38 417.755 2077.3 420.44 Q2079.24 423.102 2082.62 423.102 Q2086 423.102 2087.92 420.44 Q2089.87 417.755 2089.87 413.056 M2075.38 404.005 Q2076.72 401.69 2078.76 400.579 Q2080.82 399.445 2083.66 399.445 Q2088.39 399.445 2091.33 403.195 Q2094.29 406.945 2094.29 413.056 Q2094.29 419.167 2091.33 422.917 Q2088.39 426.667 2083.66 426.667 Q2080.82 426.667 2078.76 425.556 Q2076.72 424.422 2075.38 422.107 L2075.38 425.996 L2071.1 425.996 L2071.1 389.977 L2075.38 389.977 L2075.38 404.005 Z" fill="#000000" fill-rule="evenodd" fill-opacity="1" /><path clip-path="url(#clip190)" d="M 0 0 M2120.93 411.968 L2120.93 414.051 L2101.35 414.051 Q2101.63 418.449 2103.99 420.764 Q2106.37 423.056 2110.61 423.056 Q2113.06 423.056 2115.35 422.454 Q2117.67 421.852 2119.94 420.649 L2119.94 424.676 Q2117.65 425.648 2115.24 426.158 Q2112.83 426.667 2110.35 426.667 Q2104.15 426.667 2100.52 423.056 Q2096.91 419.445 2096.91 413.287 Q2096.91 406.922 2100.33 403.195 Q2103.78 399.445 2109.61 399.445 Q2114.85 399.445 2117.88 402.825 Q2120.93 406.181 2120.93 411.968 M2116.67 410.718 Q2116.63 407.223 2114.71 405.139 Q2112.81 403.056 2109.66 403.056 Q2106.1 403.056 2103.94 405.07 Q2101.81 407.084 2101.49 410.741 L2116.67 410.718 Z" fill="#000000" fill-rule="evenodd" fill-opacity="1" /><path clip-path="url(#clip190)" d="M 0 0 M2142.46 404.005 L2142.46 389.977 L2146.72 389.977 L2146.72 425.996 L2142.46 425.996 L2142.46 422.107 Q2141.12 424.422 2139.06 425.556 Q2137.02 426.667 2134.15 426.667 Q2129.45 426.667 2126.49 422.917 Q2123.55 419.167 2123.55 413.056 Q2123.55 406.945 2126.49 403.195 Q2129.45 399.445 2134.15 399.445 Q2137.02 399.445 2139.06 400.579 Q2141.12 401.69 2142.46 404.005 M2127.95 413.056 Q2127.95 417.755 2129.87 420.44 Q2131.81 423.102 2135.19 423.102 Q2138.57 423.102 2140.52 420.44 Q2142.46 417.755 2142.46 413.056 Q2142.46 408.357 2140.52 405.695 Q2138.57 403.01 2135.19 403.01 Q2131.81 403.01 2129.87 405.695 Q2127.95 408.357 2127.95 413.056 Z" fill="#000000" fill-rule="evenodd" fill-opacity="1" /><path clip-path="url(#clip190)" d="M 0 0 M2168.25 404.005 L2168.25 389.977 L2172.51 389.977 L2172.51 425.996 L2168.25 425.996 L2168.25 422.107 Q2166.91 424.422 2164.84 425.556 Q2162.81 426.667 2159.94 426.667 Q2155.24 426.667 2152.28 422.917 Q2149.34 419.167 2149.34 413.056 Q2149.34 406.945 2152.28 403.195 Q2155.24 399.445 2159.94 399.445 Q2162.81 399.445 2164.84 400.579 Q2166.91 401.69 2168.25 404.005 M2153.73 413.056 Q2153.73 417.755 2155.66 420.44 Q2157.6 423.102 2160.98 423.102 Q2164.36 423.102 2166.3 420.44 Q2168.25 417.755 2168.25 413.056 Q2168.25 408.357 2166.3 405.695 Q2164.36 403.01 2160.98 403.01 Q2157.6 403.01 2155.66 405.695 Q2153.73 408.357 2153.73 413.056 Z" fill="#000000" fill-rule="evenodd" fill-opacity="1" /><path clip-path="url(#clip190)" d="M 0 0 M2176.97 400.07 L2181.23 400.07 L2181.23 425.996 L2176.97 425.996 L2176.97 400.07 M2176.97 389.977 L2181.23 389.977 L2181.23 395.371 L2176.97 395.371 L2176.97 389.977 Z" fill="#000000" fill-rule="evenodd" fill-opacity="1" /><path clip-path="url(#clip190)" d="M 0 0 M2207.25 410.348 L2207.25 425.996 L2202.99 425.996 L2202.99 410.487 Q2202.99 406.806 2201.56 404.977 Q2200.12 403.149 2197.25 403.149 Q2193.8 403.149 2191.81 405.348 Q2189.82 407.547 2189.82 411.343 L2189.82 425.996 L2185.54 425.996 L2185.54 400.07 L2189.82 400.07 L2189.82 404.098 Q2191.35 401.76 2193.41 400.602 Q2195.49 399.445 2198.2 399.445 Q2202.67 399.445 2204.96 402.223 Q2207.25 404.977 2207.25 410.348 Z" fill="#000000" fill-rule="evenodd" fill-opacity="1" /><path clip-path="url(#clip190)" d="M 0 0 M2228.78 412.732 Q2228.78 408.102 2226.86 405.556 Q2224.96 403.01 2221.51 403.01 Q2218.09 403.01 2216.16 405.556 Q2214.27 408.102 2214.27 412.732 Q2214.27 417.338 2216.16 419.885 Q2218.09 422.431 2221.51 422.431 Q2224.96 422.431 2226.86 419.885 Q2228.78 417.338 2228.78 412.732 M2233.04 422.778 Q2233.04 429.398 2230.1 432.616 Q2227.16 435.857 2221.09 435.857 Q2218.85 435.857 2216.86 435.51 Q2214.87 435.185 2212.99 434.491 L2212.99 430.348 Q2214.87 431.366 2216.7 431.852 Q2218.53 432.338 2220.42 432.338 Q2224.61 432.338 2226.7 430.139 Q2228.78 427.963 2228.78 423.542 L2228.78 421.436 Q2227.46 423.727 2225.4 424.861 Q2223.34 425.996 2220.47 425.996 Q2215.7 425.996 2212.78 422.361 Q2209.87 418.727 2209.87 412.732 Q2209.87 406.713 2212.78 403.079 Q2215.7 399.445 2220.47 399.445 Q2223.34 399.445 2225.4 400.579 Q2227.46 401.713 2228.78 404.005 L2228.78 400.07 L2233.04 400.07 L2233.04 422.778 Z" fill="#000000" fill-rule="evenodd" fill-opacity="1" /><polyline clip-path="url(#clip190)" style="stroke:#ac8d18; stroke-width:4; stroke-opacity:1; fill:none" points="
  1684.23,469.196 1827.89,469.196 
  "/>
<path clip-path="url(#clip190)" d="M 0 0 M1879.71 454.578 L1879.71 459.508 Q1877.35 457.309 1874.66 456.221 Q1872 455.133 1868.99 455.133 Q1863.06 455.133 1859.92 458.768 Q1856.77 462.379 1856.77 469.23 Q1856.77 476.059 1859.92 479.693 Q1863.06 483.304 1868.99 483.304 Q1872 483.304 1874.66 482.216 Q1877.35 481.129 1879.71 478.929 L1879.71 483.814 Q1877.25 485.48 1874.5 486.314 Q1871.77 487.147 1868.71 487.147 Q1860.87 487.147 1856.35 482.355 Q1851.84 477.541 1851.84 469.23 Q1851.84 460.897 1856.35 456.106 Q1860.87 451.291 1868.71 451.291 Q1871.81 451.291 1874.55 452.124 Q1877.3 452.934 1879.71 454.578 Z" fill="#000000" fill-rule="evenodd" fill-opacity="1" /><path clip-path="url(#clip190)" d="M 0 0 M1894.22 463.536 Q1890.8 463.536 1888.8 466.221 Q1886.81 468.883 1886.81 473.536 Q1886.81 478.189 1888.78 480.874 Q1890.77 483.536 1894.22 483.536 Q1897.62 483.536 1899.61 480.851 Q1901.61 478.166 1901.61 473.536 Q1901.61 468.93 1899.61 466.244 Q1897.62 463.536 1894.22 463.536 M1894.22 459.925 Q1899.78 459.925 1902.95 463.536 Q1906.12 467.147 1906.12 473.536 Q1906.12 479.902 1902.95 483.536 Q1899.78 487.147 1894.22 487.147 Q1888.64 487.147 1885.47 483.536 Q1882.32 479.902 1882.32 473.536 Q1882.32 467.147 1885.47 463.536 Q1888.64 459.925 1894.22 459.925 Z" fill="#000000" fill-rule="evenodd" fill-opacity="1" /><path clip-path="url(#clip190)" d="M 0 0 M1914.71 482.587 L1914.71 496.337 L1910.43 496.337 L1910.43 460.55 L1914.71 460.55 L1914.71 464.485 Q1916.05 462.17 1918.09 461.059 Q1920.15 459.925 1922.99 459.925 Q1927.72 459.925 1930.66 463.675 Q1933.62 467.425 1933.62 473.536 Q1933.62 479.647 1930.66 483.397 Q1927.72 487.147 1922.99 487.147 Q1920.15 487.147 1918.09 486.036 Q1916.05 484.902 1914.71 482.587 M1929.2 473.536 Q1929.2 468.837 1927.25 466.175 Q1925.33 463.49 1921.95 463.49 Q1918.57 463.49 1916.63 466.175 Q1914.71 468.837 1914.71 473.536 Q1914.71 478.235 1916.63 480.92 Q1918.57 483.582 1921.95 483.582 Q1925.33 483.582 1927.25 480.92 Q1929.2 478.235 1929.2 473.536 Z" fill="#000000" fill-rule="evenodd" fill-opacity="1" /><path clip-path="url(#clip190)" d="M 0 0 M1960.26 472.448 L1960.26 474.531 L1940.68 474.531 Q1940.96 478.929 1943.32 481.244 Q1945.7 483.536 1949.94 483.536 Q1952.39 483.536 1954.68 482.934 Q1957 482.332 1959.27 481.129 L1959.27 485.156 Q1956.98 486.128 1954.57 486.638 Q1952.16 487.147 1949.68 487.147 Q1943.48 487.147 1939.85 483.536 Q1936.24 479.925 1936.24 473.767 Q1936.24 467.402 1939.66 463.675 Q1943.11 459.925 1948.94 459.925 Q1954.17 459.925 1957.21 463.305 Q1960.26 466.661 1960.26 472.448 M1956 471.198 Q1955.96 467.703 1954.04 465.619 Q1952.14 463.536 1948.99 463.536 Q1945.42 463.536 1943.27 465.55 Q1941.14 467.564 1940.82 471.221 L1956 471.198 Z" fill="#000000" fill-rule="evenodd" fill-opacity="1" /><path clip-path="url(#clip190)" d="M 0 0 M1964.73 450.457 L1968.99 450.457 L1968.99 486.476 L1964.73 486.476 L1964.73 450.457 Z" fill="#000000" fill-rule="evenodd" fill-opacity="1" /><path clip-path="url(#clip190)" d="M 0 0 M1985.24 473.443 Q1980.08 473.443 1978.09 474.624 Q1976.1 475.804 1976.1 478.652 Q1976.1 480.92 1977.58 482.263 Q1979.08 483.582 1981.65 483.582 Q1985.19 483.582 1987.32 481.082 Q1989.48 478.559 1989.48 474.392 L1989.48 473.443 L1985.24 473.443 M1993.73 471.684 L1993.73 486.476 L1989.48 486.476 L1989.48 482.541 Q1988.02 484.902 1985.84 486.036 Q1983.67 487.147 1980.52 487.147 Q1976.54 487.147 1974.17 484.925 Q1971.84 482.679 1971.84 478.929 Q1971.84 474.554 1974.75 472.332 Q1977.69 470.11 1983.5 470.11 L1989.48 470.11 L1989.48 469.693 Q1989.48 466.754 1987.53 465.156 Q1985.61 463.536 1982.11 463.536 Q1979.89 463.536 1977.79 464.068 Q1975.68 464.601 1973.73 465.666 L1973.73 461.73 Q1976.07 460.828 1978.27 460.388 Q1980.47 459.925 1982.55 459.925 Q1988.18 459.925 1990.96 462.842 Q1993.73 465.758 1993.73 471.684 Z" fill="#000000" fill-rule="evenodd" fill-opacity="1" /><path clip-path="url(#clip190)" d="M 0 0 M2019.75 470.828 L2019.75 486.476 L2015.49 486.476 L2015.49 470.967 Q2015.49 467.286 2014.06 465.457 Q2012.62 463.629 2009.75 463.629 Q2006.3 463.629 2004.31 465.828 Q2002.32 468.027 2002.32 471.823 L2002.32 486.476 L1998.04 486.476 L1998.04 460.55 L2002.32 460.55 L2002.32 464.578 Q2003.85 462.24 2005.91 461.082 Q2007.99 459.925 2010.7 459.925 Q2015.17 459.925 2017.46 462.703 Q2019.75 465.457 2019.75 470.828 Z" fill="#000000" fill-rule="evenodd" fill-opacity="1" /><path clip-path="url(#clip190)" d="M 0 0 M2041.28 464.485 L2041.28 450.457 L2045.54 450.457 L2045.54 486.476 L2041.28 486.476 L2041.28 482.587 Q2039.94 484.902 2037.88 486.036 Q2035.84 487.147 2032.97 487.147 Q2028.27 487.147 2025.31 483.397 Q2022.37 479.647 2022.37 473.536 Q2022.37 467.425 2025.31 463.675 Q2028.27 459.925 2032.97 459.925 Q2035.84 459.925 2037.88 461.059 Q2039.94 462.17 2041.28 464.485 M2026.77 473.536 Q2026.77 478.235 2028.69 480.92 Q2030.63 483.582 2034.01 483.582 Q2037.39 483.582 2039.34 480.92 Q2041.28 478.235 2041.28 473.536 Q2041.28 468.837 2039.34 466.175 Q2037.39 463.49 2034.01 463.49 Q2030.63 463.49 2028.69 466.175 Q2026.77 468.837 2026.77 473.536 Z" fill="#000000" fill-rule="evenodd" fill-opacity="1" /></svg>
